<svg width="61" height="61" viewBox="0 0 61 61" fill="none" xmlns="http://www.w3.org/2000/svg">
<path d="M26.6424 15.9024C26.5667 15.88 26.4873 15.8729 26.4089 15.8816C26.3304 15.8903 26.2545 15.9146 26.1856 15.953C26.1167 15.9914 26.0561 16.0432 26.0075 16.1054C25.9588 16.1675 25.9231 16.2388 25.9024 16.3149C23.9024 23.2774 32.9499 30.2624 38.9374 34.8849C40.5699 36.1449 41.9774 37.2324 42.9149 38.1149C47.2774 42.2199 49.3249 45.2424 49.7474 46.0599C49.81 46.1815 49.9124 46.278 50.0374 46.3335C50.1624 46.389 50.3027 46.4001 50.4349 46.3649C50.5524 46.3324 62.2499 43.1149 60.2699 34.9299C60.2571 34.8777 60.2377 34.8273 60.2124 34.7799L46.0099 9.01742L47.8249 1.23742C47.8468 1.14355 47.8459 1.04577 47.822 0.952358C47.7982 0.858946 47.7522 0.772655 47.6879 0.70079C47.6237 0.628925 47.543 0.573603 47.4529 0.539508C47.3627 0.505413 47.2656 0.493549 47.1699 0.504922C42.9199 1.00742 39.3824 1.59242 35.9199 4.06742C23.8099 3.25992 14.1249 6.31742 7.88737 12.9149C1.33487 19.8424 -0.115128 29.2874 0.712373 35.8199C2.61987 49.9574 13.6899 57.3974 23.4149 59.6499C25.8974 60.2224 28.3499 60.4999 30.7224 60.4999C39.0824 60.4999 46.4649 57.0474 50.5874 50.8749C50.6699 50.7504 50.7029 50.5995 50.6801 50.4518C50.6572 50.3042 50.5801 50.1704 50.4638 50.0766C50.3475 49.9828 50.2004 49.9357 50.0512 49.9447C49.9021 49.9536 49.7616 50.0179 49.6574 50.1249C41.1299 58.9424 27.1524 60.4599 16.4174 53.7349C5.20487 46.7099 0.912373 32.7099 6.64237 21.8624C12.3524 11.0524 22.5024 6.40492 35.2199 8.77492C35.3599 8.79992 35.5074 8.77492 35.6324 8.70242L36.4699 8.20992C38.7849 6.84492 41.3724 5.31742 43.6524 5.01242L41.9174 9.99492C41.8888 10.0777 41.8785 10.1657 41.8871 10.2529C41.8957 10.3401 41.9231 10.4243 41.9674 10.4999L57.1724 35.9799C56.6899 41.0499 52.9074 42.2449 51.6074 42.5074C50.8899 40.8949 49.5724 39.0974 45.8424 35.4999C44.7874 34.4824 42.8174 33.1474 40.5324 31.5999C34.6224 27.5974 25.6899 21.5499 27.0549 16.6399C27.0762 16.5644 27.0825 16.4854 27.0733 16.4075C27.0641 16.3296 27.0397 16.2542 27.0014 16.1857C26.9631 16.1173 26.9117 16.057 26.8501 16.0084C26.7885 15.9598 26.7179 15.9238 26.6424 15.9024Z" fill="#9F8052"/>
</svg>
