<svg width="60" height="60" viewBox="0 0 60 60" fill="none" xmlns="http://www.w3.org/2000/svg">
<path d="M8.67188 24.375H7.5C7.00272 24.375 6.52581 24.5725 6.17417 24.9242C5.82254 25.2758 5.625 25.7527 5.625 26.25V28.125C5.625 28.6223 5.82254 29.0992 6.17417 29.4508C6.52581 29.8025 7.00272 30 7.5 30H9.36797C9.35165 35.057 8.72445 40.0935 7.5 45H22.5C21.2755 40.0935 20.6483 35.057 20.632 30H22.5C22.9973 30 23.4742 29.8025 23.8258 29.4508C24.1775 29.0992 24.375 28.6223 24.375 28.125V26.25C24.375 25.7527 24.1775 25.2758 23.8258 24.9242C23.4742 24.5725 22.9973 24.375 22.5 24.375H21.3281L25.2996 13.7836C25.4061 13.4997 25.4422 13.1943 25.4047 12.8934C25.3673 12.5926 25.2574 12.3053 25.0846 12.0562C24.9118 11.8071 24.6811 11.6036 24.4124 11.4632C24.1437 11.3228 23.845 11.2496 23.5418 11.25H16.875V7.5H19.6875C19.9361 7.5 20.1746 7.40123 20.3504 7.22541C20.5262 7.0496 20.625 6.81114 20.625 6.5625V4.6875C20.625 4.43886 20.5262 4.2004 20.3504 4.02459C20.1746 3.84877 19.9361 3.75 19.6875 3.75H16.875V0.9375C16.875 0.68886 16.7762 0.450403 16.6004 0.274587C16.4246 0.0987721 16.1861 0 15.9375 0L14.0625 0C13.8139 0 13.5754 0.0987721 13.3996 0.274587C13.2238 0.450403 13.125 0.68886 13.125 0.9375V3.75H10.3125C10.0639 3.75 9.8254 3.84877 9.64959 4.02459C9.47377 4.2004 9.375 4.43886 9.375 4.6875V6.5625C9.375 6.81114 9.47377 7.0496 9.64959 7.22541C9.8254 7.40123 10.0639 7.5 10.3125 7.5H13.125V11.25H6.45586C6.15268 11.2496 5.85393 11.3228 5.58523 11.4632C5.31652 11.6036 5.08587 11.8071 4.91304 12.0562C4.74022 12.3053 4.63038 12.5926 4.59293 12.8934C4.55549 13.1943 4.59155 13.4997 4.69805 13.7836L8.67188 24.375ZM28.9641 53.857L26.25 52.5V50.625C26.25 50.1277 26.0525 49.6508 25.7008 49.2992C25.3492 48.9475 24.8723 48.75 24.375 48.75H5.625C5.12772 48.75 4.65081 48.9475 4.29917 49.2992C3.94754 49.6508 3.75 50.1277 3.75 50.625V52.5L1.03711 53.857C0.725557 54.0127 0.463505 54.252 0.280325 54.5482C0.0971455 54.8444 7.7112e-05 55.1857 0 55.534L0 58.125C0 58.6223 0.197544 59.0992 0.549175 59.4508C0.900806 59.8025 1.37772 60 1.875 60H28.125C28.6223 60 29.0992 59.8025 29.4508 59.4508C29.8025 59.0992 30 58.6223 30 58.125V55.534C30 55.1858 29.9031 54.8446 29.7202 54.5484C29.5372 54.2522 29.2754 54.0128 28.9641 53.857V53.857ZM39.8355 35.3672L39.45 45H54.3L53.9145 35.366L56.7973 32.9297C57.2138 32.5773 57.5484 32.1382 57.7777 31.6431C58.007 31.148 58.1255 30.6089 58.125 30.0633V23.2031C58.125 23.0166 58.0509 22.8378 57.9191 22.7059C57.7872 22.5741 57.6084 22.5 57.4219 22.5H54.3305C54.144 22.5 53.9651 22.5741 53.8333 22.7059C53.7014 22.8378 53.6273 23.0166 53.6273 23.2031V26.25H50.7316V23.2031C50.7316 23.0166 50.6576 22.8378 50.5257 22.7059C50.3938 22.5741 50.215 22.5 50.0285 22.5H43.7227C43.5362 22.5 43.3573 22.5741 43.2255 22.7059C43.0936 22.8378 43.0195 23.0166 43.0195 23.2031V26.25H40.1238V23.2031C40.1238 23.0166 40.0497 22.8378 39.9179 22.7059C39.786 22.5741 39.6072 22.5 39.4207 22.5H36.3281C36.1416 22.5 35.9628 22.5741 35.8309 22.7059C35.6991 22.8378 35.625 23.0166 35.625 23.2031V30.0703C35.6259 30.615 35.7455 31.153 35.9754 31.6468C36.2053 32.1406 36.54 32.5784 36.9562 32.9297L39.8355 35.3672ZM45 35.625C45 35.1277 45.1975 34.6508 45.5492 34.2992C45.9008 33.9475 46.3777 33.75 46.875 33.75C47.3723 33.75 47.8492 33.9475 48.2008 34.2992C48.5525 34.6508 48.75 35.1277 48.75 35.625V39.375H45V35.625ZM58.9641 53.857L56.25 52.5V50.625C56.25 50.1277 56.0525 49.6508 55.7008 49.2992C55.3492 48.9475 54.8723 48.75 54.375 48.75H39.375C38.8777 48.75 38.4008 48.9475 38.0492 49.2992C37.6975 49.6508 37.5 50.1277 37.5 50.625V52.5L34.7871 53.857C34.4756 54.0127 34.2135 54.252 34.0303 54.5482C33.8471 54.8444 33.7501 55.1857 33.75 55.534V58.125C33.75 58.6223 33.9475 59.0992 34.2992 59.4508C34.6508 59.8025 35.1277 60 35.625 60H58.125C58.6223 60 59.0992 59.8025 59.4508 59.4508C59.8025 59.0992 60 58.6223 60 58.125V55.534C60 55.1858 59.9031 54.8446 59.7202 54.5484C59.5372 54.2522 59.2754 54.0128 58.9641 53.857V53.857Z" fill="#151515"/>
</svg>
