<svg width="22" height="40" viewBox="0 0 22 40" fill="none" xmlns="http://www.w3.org/2000/svg">
<path d="M14.6383 10.375C15.476 9.63602 16.0689 8.65945 16.338 7.57521C16.6071 6.49098 16.5397 5.35051 16.1447 4.30555C15.7497 3.26059 15.0458 2.36069 14.1268 1.72559C13.2078 1.09049 12.1171 0.750305 11 0.750305C9.88287 0.750305 8.79223 1.09049 7.87319 1.72559C6.95416 2.36069 6.25031 3.26059 5.8553 4.30555C5.46029 5.35051 5.39286 6.49098 5.66197 7.57521C5.93107 8.65945 6.52396 9.63602 7.36175 10.375H6.875C6.14565 10.375 5.44618 10.6647 4.93046 11.1805C4.41473 11.6962 4.125 12.3957 4.125 13.125C4.125 13.8543 4.41473 14.5538 4.93046 15.0695C5.44618 15.5853 6.14565 15.875 6.875 15.875H7.5625V21.375C7.5625 21.375 7.5625 22.0625 6.875 22.75L4.09063 25.5344C2.03775 27.5873 2.35812 30.626 4.11125 32.375C3.01962 32.3786 1.97394 32.8148 1.20332 33.588C0.432703 34.3612 -6.06462e-06 35.4084 0 36.5V39.25H22V36.5C22 35.4084 21.5673 34.3612 20.7967 33.588C20.0261 32.8148 18.9804 32.3786 17.8888 32.375C19.6405 30.626 19.9622 27.5873 17.9094 25.5344L15.125 22.75C14.4375 22.0625 14.4375 21.375 14.4375 21.375V15.875H15.125C15.8543 15.875 16.5538 15.5853 17.0695 15.0695C17.5853 14.5538 17.875 13.8543 17.875 13.125C17.875 12.3957 17.5853 11.6962 17.0695 11.1805C16.5538 10.6647 15.8543 10.375 15.125 10.375H14.6383Z" fill="#CBAF85"/>
</svg>
