<svg width="40" height="50" viewBox="0 0 40 50" fill="none" xmlns="http://www.w3.org/2000/svg">
<path d="M35 2.5C36.3261 2.5 37.5979 3.02678 38.5355 3.96447C39.4732 4.90215 40 6.17392 40 7.5C40 9.525 38.75 11.25 37.075 12.05L32.5 27.875V40H7.5V27.875L2.925 12.05C1.25 11.25 0 9.525 0 7.5C0 6.17392 0.526784 4.90215 1.46447 3.96447C2.40215 3.02678 3.67392 2.5 5 2.5C6.32608 2.5 7.59785 3.02678 8.53553 3.96447C9.47322 4.90215 10 6.17392 10 7.5C10 8.75 9.55 9.875 8.75 10.75L15.75 18.375L17.075 9.05C15.825 8.15 15 6.675 15 5C15 3.67392 15.5268 2.40215 16.4645 1.46447C17.4021 0.526784 18.6739 0 20 0C21.3261 0 22.5979 0.526784 23.5355 1.46447C24.4732 2.40215 25 3.67392 25 5C25 6.675 24.175 8.15 22.925 9.05L24.25 18.375L31.175 10.725C30.4151 9.82232 29.9989 8.67997 30 7.5C30 6.17392 30.5268 4.90215 31.4645 3.96447C32.4021 3.02678 33.6739 2.5 35 2.5ZM2.5 45H37.5V50H2.5V45Z" fill="#CBAF85"/>
</svg>
