<svg width="40" height="40" viewBox="0 0 40 40" fill="none" xmlns="http://www.w3.org/2000/svg">
<path d="M16.0317 0C13.8368 0 12.0635 1.11719 12.0635 2.5C12.0635 3.75781 13.5391 4.79688 15.4613 4.97656C9.88091 8.34375 1.15075 14.8438 1.15075 22.5C1.15075 26.2031 4.9702 28.1484 8.0952 29.1172V32.5H31.9047V29.1172C35.0297 28.1406 38.8492 26.1953 38.8492 22.5C38.8492 19.5859 37.5843 16.8438 35.7118 14.3672L23.3854 22.1328C22.6165 22.6172 21.3516 22.6172 20.5828 22.1328C19.8139 21.6484 19.8139 20.8516 20.5828 20.3672L33.74 12.0781C30.8631 9.10156 27.3164 6.64844 24.5387 4.97656C26.4608 4.79688 27.9365 3.75781 27.9365 2.5C27.9365 1.11719 26.1632 0 23.9682 0H16.0317ZM4.12695 35C1.932 35 0.158691 36.1172 0.158691 37.5C0.158691 38.8828 1.932 40 4.12695 40H35.873C38.0679 40 39.8412 38.8828 39.8412 37.5C39.8412 36.1172 38.0679 35 35.873 35H4.12695Z" fill="#CBAF85"/>
</svg>
