<svg width="40" height="38" viewBox="0 0 40 38" fill="none" xmlns="http://www.w3.org/2000/svg">
<path d="M3.33333 28.5938V30.5H36.6667V15.5C36.6667 7.21875 27.7083 0.5 16.6667 0.5H1.34375C0.604167 0.5 0 0.953125 0 1.50781C0 1.66406 0.0520833 1.82031 0.145833 1.96094L1.66667 4.25L0.979167 4.76562C0.354167 5.23438 0 5.86719 0 6.53125V16.9297C0 17.9531 0.833333 18.875 2.09375 19.25L6.9375 20.7031C7.82292 20.9688 8.8125 20.9375 9.66667 20.6172L10.3542 20.3594C11.1875 20.0469 11.8125 19.4844 12.0729 18.8125L12.9375 16.5547C13.1979 15.8828 13.8125 15.3203 14.6562 15.0078L16.6667 14.25V17.4062C16.6667 19.2969 15.2396 21.0312 12.9792 21.875L7.02083 24.1172C4.76042 24.9687 3.33333 26.6953 3.33333 28.5938ZM7.5 9.5625C7.5 10.4219 6.5625 11.125 5.41667 11.125C4.27083 11.125 3.33333 10.4219 3.33333 9.5625C3.33333 8.70312 4.27083 8 5.41667 8C6.5625 8 7.5 8.70312 7.5 9.5625ZM36.6667 33H3.33333C1.48958 33 0 34.1172 0 35.5C0 36.8828 1.48958 38 3.33333 38H36.6667C38.5104 38 40 36.8828 40 35.5C40 34.1172 38.5104 33 36.6667 33Z" fill="#CBAF85"/>
</svg>
