<svg width="10" height="18" viewBox="0 0 10 18" fill="none" xmlns="http://www.w3.org/2000/svg">
<path d="M5 14.8334C5.69 14.8334 6.25 15.3934 6.25 16.0834C6.25 16.7734 5.69 17.3334 5 17.3334C4.31 17.3334 3.75 16.7734 3.75 16.0834C3.75 15.3934 4.31 14.8334 5 14.8334ZM5 0.666687C7.76167 0.666687 10 2.90502 10 5.66669C10 7.47085 9.3725 8.40835 7.77167 9.76919C6.16583 11.1334 5.83333 11.7475 5.83333 13.1667H4.16667C4.16667 11.105 4.8225 10.0875 6.6925 8.49919C7.95667 7.42502 8.33333 6.86169 8.33333 5.66669C8.33333 3.82502 6.84167 2.33335 5 2.33335C3.15833 2.33335 1.66667 3.82502 1.66667 5.66669V6.50002H0V5.66669C0 2.90502 2.23833 0.666687 5 0.666687Z" fill="#CBAF85"/>
</svg>
